<svg xmlns="http://www.w3.org/2000/svg" viewBox="0 0 280 72" role="img" aria-label="KiroQuest">
  <defs>
    <linearGradient id="logo-grad" x1="0" y1="0" x2="64" y2="64" gradientUnits="userSpaceOnUse">
      <stop offset="0" stop-color="#6366f1"/>
      <stop offset="0.55" stop-color="#7c5cf0"/>
      <stop offset="1" stop-color="#10b981"/>
    </linearGradient>
    <linearGradient id="logo-shine" x1="0" y1="0" x2="0" y2="64" gradientUnits="userSpaceOnUse">
      <stop offset="0" stop-color="#ffffff" stop-opacity="0.18"/>
      <stop offset="0.6" stop-color="#ffffff" stop-opacity="0"/>
    </linearGradient>
  </defs>

  <!-- Symbol -->
  <g transform="translate(4 4)">
    <path
      d="M12 8 L52 8 Q56 8 56 12 L56 34 Q56 48 32 58 Q8 48 8 34 L8 12 Q8 8 12 8 Z"
      fill="url(#logo-grad)"
    />
    <path
      d="M12 8 L52 8 Q56 8 56 12 L56 30 Q44 22 32 22 Q20 22 8 30 L8 12 Q8 8 12 8 Z"
      fill="url(#logo-shine)"
    />
    <g stroke="#ffffff" stroke-width="5.5" stroke-linecap="round" stroke-linejoin="round" fill="none">
      <line x1="24" y1="19" x2="24" y2="45"/>
      <line x1="24" y1="32" x2="38" y2="19"/>
      <line x1="24" y1="32" x2="40" y2="45"/>
    </g>
    <path
      d="M47 9 C47.5 13 49 14.5 53 15 C49 15.5 47.5 17 47 21 C46.5 17 45 15.5 41 15 C45 14.5 46.5 13 47 9 Z"
      fill="#ffffff"
    />
  </g>

  <!-- Wordmark -->
  <g font-family="Inter, -apple-system, BlinkMacSystemFont, 'Segoe UI', Roboto, sans-serif"
     font-size="36" font-weight="800" letter-spacing="-1">
    <text x="82" y="48" fill="currentColor">Kiro</text>
    <text x="166" y="48" fill="#10b981">Quest</text>
  </g>
</svg>
